
<svg width="25px" height="25px" viewBox="0 0 25 25" version="1.1" xmlns="http://www.w3.org/2000/svg" xmlns:xlink="http://www.w3.org/1999/xlink">
    <!-- Generator: Sketch 49.3 (51167) - http://www.bohemiancoding.com/sketch -->
    <desc>Created with Sketch.</desc>
    <defs></defs>
    <g id="test" stroke="none" stroke-width="1" fill="none" fill-rule="evenodd">
        <g id="Desktop-Copy-2" transform="translate(-800.000000, -246.000000)" fill="#3B99FC" fill-rule="nonzero">
            <g id="noun_1310926_cc" transform="translate(800.000000, 246.000000)">
                <g id="Group">
                    <g id="Shape">
                        <path d="M1.29146478,0 L23.7085352,0 C24.4188311,0 25,0.578208491 25,1.29146478 L25,23.7085352 C25,24.4188311 24.4217915,25 23.7085352,25 L1.29146478,25 C0.581168879,25 0,24.4217915 0,23.7085352 L0,1.29146478 C0,0.581168879 0.578208491,0 1.29146478,0 Z M7.97413793,13.5775862 L20.9051724,13.5775862 C21.5003069,13.5775862 21.9827586,13.0951344 21.9827586,12.5 C21.9827586,11.9048656 21.5003069,11.4224138 20.9051724,11.4224138 L7.97413793,11.4224138 C7.37900349,11.4224138 6.89655172,11.9048656 6.89655172,12.5 C6.89655172,13.0951344 7.37900349,13.5775862 7.97413793,13.5775862 Z M7.97413793,18.75 L20.9051724,18.75 C21.5003069,18.75 21.9827586,18.2675482 21.9827586,17.6724138 C21.9827586,17.0772794 21.5003069,16.5948276 20.9051724,16.5948276 L7.97413793,16.5948276 C7.37900349,16.5948276 6.89655172,17.0772794 6.89655172,17.6724138 C6.89655172,18.2675482 7.37900349,18.75 7.97413793,18.75 Z M7.97413793,8.40517241 L20.9051724,8.40517241 C21.5003069,8.40517241 21.9827586,7.92272065 21.9827586,7.32758621 C21.9827586,6.73245177 21.5003069,6.25 20.9051724,6.25 L7.97413793,6.25 C7.37900349,6.25 6.89655172,6.73245177 6.89655172,7.32758621 C6.89655172,7.92272065 7.37900349,8.40517241 7.97413793,8.40517241 Z M3.01724138,12.5 C3.01724138,13.2141613 3.59763668,13.7931034 4.31034483,13.7931034 C5.02450612,13.7931034 5.60344828,13.2127081 5.60344828,12.5 C5.60344828,11.7858387 5.02305297,11.2068966 4.31034483,11.2068966 C3.59618353,11.2068966 3.01724138,11.7872919 3.01724138,12.5 Z M3.01724138,17.6724138 C3.01724138,18.3865751 3.59763668,18.9655172 4.31034483,18.9655172 C5.02450612,18.9655172 5.60344828,18.3851219 5.60344828,17.6724138 C5.60344828,16.9582525 5.02305297,16.3793103 4.31034483,16.3793103 C3.59618353,16.3793103 3.01724138,16.9597056 3.01724138,17.6724138 Z M3.01724138,7.32758621 C3.01724138,8.0417475 3.59763668,8.62068966 4.31034483,8.62068966 C5.02450612,8.62068966 5.60344828,8.04029435 5.60344828,7.32758621 C5.60344828,6.61342491 5.02305297,6.03448276 4.31034483,6.03448276 C3.59618353,6.03448276 3.01724138,6.61487806 3.01724138,7.32758621 Z"></path>
                    </g>
                </g>
            </g>
        </g>
    </g>
</svg>
