
<svg width="25px" height="25px" viewBox="0 0 25 25" version="1.1" xmlns="http://www.w3.org/2000/svg" xmlns:xlink="http://www.w3.org/1999/xlink">
    <!-- Generator: Sketch 49.3 (51167) - http://www.bohemiancoding.com/sketch -->
    <desc>Created with Sketch.</desc>
    <defs></defs>
    <g id="test" stroke="none" stroke-width="1" fill="none" fill-rule="evenodd">
        <g id="Desktop-Copy-2" transform="translate(-320.000000, -246.000000)" fill="#3B99FC" fill-rule="nonzero">
            <g id="Home" transform="translate(320.000000, 246.000000)">
                <g id="Group">
                    <path d="M24.4084187,10.9820144 C23.668942,10.294964 22.9294653,9.60431655 22.1899886,8.91726619 C22.0847554,8.82014388 21.9823663,8.72302158 21.8771331,8.62589928 C22.0648464,9.03956835 22.2525597,9.45323741 22.440273,9.86690647 C22.440273,9.54316547 22.3492605,9.24460432 22.1956769,8.99640288 C22.1018203,8.84172662 21.9994312,8.74460432 21.8771331,8.62589928 C21.874289,8.62230216 21.8714448,8.62230216 21.8714448,8.61870504 C21.8600683,8.60791367 21.8486917,8.5971223 21.8373151,8.58633094 C21.7832765,8.53597122 21.7292378,8.48561151 21.6780432,8.4352518 C21.4732651,8.24100719 21.2656428,8.04316547 21.0608646,7.84892086 C20.3640501,7.18345324 19.6643914,6.52158273 18.9675768,5.85611511 C18.1114903,5.04316547 17.258248,4.22661871 16.4021615,3.41366906 C15.6598407,2.70503597 14.9146758,1.99640288 14.1723549,1.29136691 C13.8083049,0.946043165 13.4527873,0.582733813 13.0802048,0.251798561 C13.0745165,0.248201439 13.0688282,0.241007194 13.0659841,0.237410072 C12.7787258,-0.035971223 12.2070535,-0.035971223 11.9169511,0.237410072 C11.6211604,0.517985612 11.3253697,0.802158273 11.0267349,1.08273381 C10.3156997,1.75899281 9.60466439,2.4352518 8.89647327,3.11151079 C8.0403868,3.92446043 7.18430034,4.74100719 6.32821388,5.55395683 C5.59442548,6.25179856 4.86348123,6.94964029 4.12969283,7.64748201 C3.7883959,7.97122302 3.44709898,8.29496403 3.10580205,8.62230216 C3.10295791,8.62589928 3.10295791,8.62589928 3.10011377,8.6294964 C3.09726962,8.63309353 2.87258248,8.85251799 2.86973834,8.85611511 C2.66211604,9.11870504 2.53697383,9.5 2.53697383,9.87410072 C2.72468714,9.46043165 2.91240046,9.04676259 3.10011377,8.63309353 C2.36063709,9.32014388 1.62116041,10.0107914 0.881683732,10.6978417 C0.776450512,10.794964 0.674061433,10.8920863 0.568828214,10.9892086 C0.321387941,11.2194245 0.130830489,11.4604317 0.0455062571,11.8489209 C-0.0284414107,12.1942446 0.00568828214,12.6510791 0.1592719,12.9568345 C0.315699659,13.2625899 0.548919226,13.5359712 0.839021615,13.618705 C1.12059158,13.6978417 1.47326507,13.6978417 1.71501706,13.4748201 C2.47155859,12.7697842 3.22810011,12.0647482 3.98464164,11.3597122 C4.05574516,11.294964 4.12400455,11.2302158 4.19510808,11.1654676 C4.20932878,11.1510791 4.22354949,11.1366906 4.24061433,11.1258993 C4.24345848,11.1223022 4.24630262,11.1223022 4.24630262,11.118705 C4.40557452,10.9676259 4.55631399,10.8381295 4.65585893,10.6007194 C4.74971559,10.3741007 4.81228669,10.1330935 4.81228669,9.87410072 C4.62457338,10.2877698 4.43686007,10.7014388 4.24914676,11.1151079 C4.54209329,10.8381295 4.83219568,10.5611511 5.12514221,10.2805755 C5.82480091,9.61510791 6.52730375,8.94604317 7.22696246,8.28057554 C8.08020478,7.47122302 8.93060296,6.65827338 9.78384528,5.84892086 C10.5176337,5.15107914 11.2514221,4.45323741 11.9823663,3.75539568 C12.337884,3.41726619 12.701934,3.08992806 13.0517634,2.73741007 C13.0574516,2.73381295 13.0631399,2.72661871 13.0659841,2.72302158 C12.682025,2.72302158 12.3009101,2.72302158 11.9169511,2.72302158 C12.2098976,3 12.5,3.27697842 12.7929465,3.55755396 C13.4926052,4.22302158 14.1951081,4.89208633 14.8947668,5.55755396 C15.7480091,6.36690647 16.5984073,7.17985612 17.4516496,7.98920863 C18.185438,8.68705036 18.9192264,9.38489209 19.6501706,10.0827338 C20.0056883,10.4208633 20.3583618,10.7697842 20.7195677,11.1007194 C20.725256,11.1043165 20.7309443,11.1115108 20.7337884,11.1151079 C20.5460751,10.7014388 20.3583618,10.2877698 20.1706485,9.87410072 C20.1706485,10.2589928 20.301479,10.6115108 20.503413,10.8920863 C20.6285552,11.0647482 20.6569966,11.0431655 20.7366325,11.118705 C20.7480091,11.1294964 20.7593857,11.1402878 20.7707622,11.1510791 C20.8248009,11.2014388 20.8788396,11.2517986 20.9300341,11.3021583 C21.129124,11.4892086 21.3282139,11.6726619 21.5273038,11.8597122 C21.9937429,12.294964 22.460182,12.7266187 22.9266212,13.1618705 C23.0403868,13.2661871 23.1513083,13.3705036 23.2650739,13.4748201 C23.486917,13.6834532 23.8850967,13.7086331 24.1410694,13.618705 C24.4055745,13.5251799 24.6899886,13.2697842 24.8208191,12.9568345 C24.960182,12.6223022 25.0312856,12.2194245 24.9345848,11.8489209 C24.8976109,11.7338129 24.8577929,11.618705 24.8208191,11.5035971 C24.7155859,11.2805755 24.5790671,11.1079137 24.4084187,10.9820144 Z" id="Shape"></path>
                    <path d="M21.3026166,9.86690647 L21.3026166,24.1798561 C21.3026166,24.6079137 21.0437998,25 20.705347,25 L15.2730375,25 L15.2730375,15.5827338 C15.2730375,15.1546763 15.0028441,14.8561151 14.6643914,14.8561151 L10.3071672,14.8561151 C9.96871445,14.8561151 9.69852105,15.1546763 9.69852105,15.5827338 L9.69852105,25 L4.2662116,25 C3.92775882,25 3.66894198,24.6079137 3.66894198,24.1798561 L3.66894198,9.86690647 L12.4857793,1.47482014 L21.3026166,9.86690647 Z" id="Shape"></path>
                </g>
            </g>
        </g>
    </g>
</svg>
