
<svg width="26px" height="25px" viewBox="0 0 26 25" version="1.1" xmlns="http://www.w3.org/2000/svg" xmlns:xlink="http://www.w3.org/1999/xlink">
    <!-- Generator: Sketch 49.3 (51167) - http://www.bohemiancoding.com/sketch -->
    <desc>Created with Sketch.</desc>
    <defs></defs>
    <g id="test" stroke="none" stroke-width="1" fill="none" fill-rule="evenodd">
        <g id="Desktop-Copy-2" transform="translate(-635.000000, -246.000000)" fill="#3B99FC" fill-rule="nonzero">
            <g id="Send" transform="translate(635.000000, 246.000000)">
                <path d="M2.95956875,0.148108382 L24.2623156,10.8756204 C24.8992031,11.1963404 25.2968203,11.8209659 25.2968516,12.5007966 C25.2968844,13.1806072 24.8992672,13.8052268 24.2623672,14.12588 L2.95802813,24.8517351 C2.31014063,25.1779193 1.50394219,24.9479404 1.15732969,24.3380632 C0.9953875,24.0531171 0.956723438,23.72029 1.04942188,23.4091629 L3.40750625,15.4947044 L13.2850391,12.5001576 L3.40712813,9.47086353 L1.05139688,1.59140662 C0.852345313,0.925620294 1.26436406,0.234071324 1.97166406,0.0467886765 C2.30249375,-0.0408098529 2.65651563,-0.00450117647 2.95956875,0.148108382 Z" id="Shape" transform="translate(13.148426, 12.500000) scale(-1, -1) rotate(-90.000000) translate(-13.148426, -12.500000) "></path>
            </g>
        </g>
    </g>
</svg>
