
<svg width="26px" height="25px" viewBox="0 0 26 25" version="1.1" xmlns="http://www.w3.org/2000/svg" xmlns:xlink="http://www.w3.org/1999/xlink">
    <!-- Generator: Sketch 49.3 (51167) - http://www.bohemiancoding.com/sketch -->
    <desc>Created with Sketch.</desc>
    <defs></defs>
    <g id="test" stroke="none" stroke-width="1" fill="none" fill-rule="evenodd">
        <g id="Desktop-Copy-2" transform="translate(-492.000000, -246.000000)" fill="#3B99FC" fill-rule="nonzero">
            <g id="Receive" transform="translate(493.000000, 246.000000)">
                <path d="M1.95956875,0.148108382 L23.2623156,10.8756204 C23.8992031,11.1963404 24.2968203,11.8209659 24.2968516,12.5007966 C24.2968844,13.1806072 23.8992672,13.8052268 23.2623672,14.12588 L1.95802812,24.8517351 C1.31014062,25.1779193 0.503942187,24.9479404 0.157329687,24.3380632 C-0.0046125,24.0531171 -0.0432765625,23.72029 0.049421875,23.4091629 L2.40750625,15.4947044 L12.2850391,12.5001576 L2.40712813,9.47086353 L0.051396875,1.59140662 C-0.147654687,0.925620294 0.264364062,0.234071324 0.971664063,0.0467886765 C1.30249375,-0.0408098529 1.65651563,-0.00450117647 1.95956875,0.148108382 Z" id="Shape" transform="translate(12.148426, 12.500000) rotate(-90.000000) translate(-12.148426, -12.500000) "></path>
            </g>
        </g>
    </g>
</svg>
