
<svg width="20px" height="20px" viewBox="0 0 20 20" version="1.1" xmlns="http://www.w3.org/2000/svg" xmlns:xlink="http://www.w3.org/1999/xlink">
    <!-- Generator: Sketch 49.3 (51167) - http://www.bohemiancoding.com/sketch -->
    <desc>Created with Sketch.</desc>
    <defs></defs>
    <g id="test" stroke="none" stroke-width="1" fill="none" fill-rule="evenodd">
        <g id="Desktop-Copy-2" transform="translate(-787.000000, -608.000000)" fill="#48D079" fill-rule="nonzero">
            <g id="Transacciones" transform="translate(787.000000, 343.000000)">
                <g id="VerdeTransaccionentrada" transform="translate(0.000000, 255.000000)">
                    <path d="M0,19.9938235 C0.000294117647,25.5135294 4.47470588,29.9879412 9.99382353,29.9879412 C15.5135294,29.9879412 19.9879412,25.5135294 19.9879412,19.9938235 C19.9879412,14.4747059 15.5132353,10.0002941 9.99352941,10 C4.47441176,10 0.000294117647,14.4747059 0,19.9938235 Z M16.5041176,20.6808824 C16.4944118,20.6938235 16.485,20.7067647 16.4741176,20.7191176 C16.4552941,20.7420588 16.4344118,20.765 16.4117647,20.7873529 C16.4114706,20.7882353 16.4102941,20.7891176 16.4097059,20.7897059 L11.4161765,25.7835294 C10.9767647,26.2229412 10.265,26.2229412 9.82558824,25.7835294 C9.38676471,25.3444118 9.38676471,24.6323529 9.82558824,24.1935294 L12.9011765,21.1185294 L4.37235294,21.1185294 C3.75147059,21.1185294 3.24764706,20.615 3.24764706,19.9938235 C3.24764706,19.3732353 3.75147059,18.8697059 4.37235294,18.8697059 L12.9011765,18.8697059 L9.82617647,15.7944118 C9.38676471,15.3555882 9.38676471,14.6432353 9.82617647,14.2038235 C10.265,13.7652941 10.9767647,13.7652941 11.4155882,14.2038235 L16.4102941,19.1988235 C16.4344118,19.2226471 16.4552941,19.2458824 16.475,19.2702941 C16.4838235,19.28 16.4920588,19.2905882 16.5,19.3008824 C16.5061765,19.3088235 16.5132353,19.3179412 16.5182353,19.3264706 C16.6570588,19.5132353 16.7394118,19.7429412 16.74,19.9938235 C16.7394118,20.245 16.6567647,20.4755882 16.5179412,20.6626471 C16.5138235,20.6688235 16.5088235,20.6747059 16.5041176,20.6808824 Z" id="Shape"></path>
                </g>
            </g>
        </g>
    </g>
</svg>
