<?xml version="1.0" encoding="utf-8"?>
<!-- Generator: Adobe Illustrator 21.0.0, SVG Export Plug-In . SVG Version: 6.00 Build 0)  -->
<svg version="1.1" id="Icon_1_" xmlns="http://www.w3.org/2000/svg" xmlns:xlink="http://www.w3.org/1999/xlink" x="0px" y="0px"
	 viewBox="0 0 959.5 914.4" style="enable-background:new 0 0 959.5 914.4;" xml:space="preserve">
<style type="text/css">
	.st0{fill-rule:evenodd;clip-rule:evenodd;fill:#333333;}
	.st1{fill:#333333;}
</style>
<g id="Rectangle_2">
	<g>
		<rect x="0" y="439.2" class="st0" width="272.6" height="161.1"/>
	</g>
</g>
<g>
	<path class="st1" d="M469.2,601.1v313.3H257V0.1h349.1c108.4,0,194.5,27.6,258.1,82.9s95.5,127.9,95.5,217.9
		s-31.8,162.5-95.5,217.6s-149.7,82.6-258.1,82.6H469.2z M469.2,437.8h136.9c46,0,81.2-12.7,105.5-38s36.4-57.9,36.4-97.7
		c0-40.6-12-73.9-36.1-99.8s-59.3-38.9-105.8-38.9H469.2V437.8z"/>
</g>
<g id="Rectangle_2_copie">
	<g>
		<rect x="0" y="199.6" class="st0" width="272.6" height="161.1"/>
	</g>
</g>
</svg>
