<?xml version="1.0" encoding="utf-8"?>
<!-- Generator: Adobe Illustrator 21.0.0, SVG Export Plug-In . SVG Version: 6.00 Build 0)  -->
<svg version="1.1" id="Calque_1" xmlns="http://www.w3.org/2000/svg" xmlns:xlink="http://www.w3.org/1999/xlink" x="0px" y="0px"
	 viewBox="0 0 1000 1000" style="enable-background:new 0 0 1000 1000;" xml:space="preserve">
<style type="text/css">
	.st0{fill:#297BD8;}
	.st1{fill:#FFFFFF;}
</style>
<g>
	<circle class="st0" cx="500" cy="500" r="499.5"/>
</g>
<g>
	<g id="Rectangle_2">
		<g>
			<rect x="213" y="489" class="st1" width="156.2" height="92.3"/>
		</g>
	</g>
	<g>
		<path class="st1" d="M481.9,581.7v179.6H360.3v-524h200.1c62.1,0,111.5,15.8,147.9,47.5S763,358.1,763,409.7
			s-18.2,93.1-54.7,124.7s-85.8,47.3-147.9,47.3H481.9z M481.9,488.2h78.5c26.4,0,46.5-7.3,60.5-21.8c13.9-14.5,20.9-33.2,20.9-56
			c0-23.3-6.9-42.4-20.7-57.2c-13.8-14.8-34-22.3-60.6-22.3h-78.5V488.2z"/>
	</g>
	<g id="Rectangle_2_copie">
		<g>
			<rect x="213" y="351.7" class="st1" width="156.2" height="92.3"/>
		</g>
	</g>
</g>
</svg>
