<?xml version="1.0" encoding="utf-8"?>
<!-- Generator: Adobe Illustrator 19.0.0, SVG Export Plug-In . SVG Version: 6.00 Build 0)  -->
<svg version="1.1" id="Layer_1" xmlns="http://www.w3.org/2000/svg" xmlns:xlink="http://www.w3.org/1999/xlink" x="0px" y="0px"
	 viewBox="0 0 32 32" style="enable-background:new 0 0 32 32;" xml:space="preserve">
<style type="text/css">
	.st0{fill:#5FBE76;}
</style>
<g id="XMLID_3_">
	<path id="XMLID_1_" class="st0" d="M1,18v-4.1c0-1,0.8-1.9,1.9-1.9h9.2V2.8c0-1.1,0.8-1.9,1.9-1.9h4.1c1.1,0,1.9,0.8,1.9,1.9v9.2
		h9.2c1,0,1.9,0.8,1.9,1.9V18c0,1.1-0.9,1.9-1.9,1.9H20v9.2c0,1-0.8,1.9-1.9,1.9H14c-1,0-1.9-0.9-1.9-1.9v-9.2H2.9
		C1.8,19.9,1,19.1,1,18z"/>
</g>
</svg>
