<?xml version="1.0" encoding="utf-8"?>
<!-- Generator: Adobe Illustrator 19.0.0, SVG Export Plug-In . SVG Version: 6.00 Build 0)  -->
<svg version="1.1" id="Layer_1" xmlns="http://www.w3.org/2000/svg" xmlns:xlink="http://www.w3.org/1999/xlink" x="0px" y="0px"
	 viewBox="-2 2.4 25 25" style="enable-background:new -2 2.4 25 25;" xml:space="preserve">
<style type="text/css">
	.st0{fill:#297BD8;}
</style>
<desc>Created with Sketch.</desc>
<g id="test">
	<g id="Desktop-Copy-2" transform="translate(-800.000000, -246.000000)">
		<g id="noun_1310926_cc" transform="translate(800.000000, 246.000000)">
			<g id="Group">
				<g id="Shape">
					<path class="st0" d="M-0.2,2.8h21.5c0.7,0,1.2,0.6,1.2,1.2v21.5c0,0.7-0.6,1.2-1.2,1.2H-0.2c-0.7,0-1.2-0.6-1.2-1.2V4.1
						C-1.5,3.4-0.9,2.8-0.2,2.8z M6.2,15.9h12.4c0.6,0,1-0.5,1-1s-0.5-1-1-1H6.2c-0.6,0-1,0.5-1,1S5.6,15.9,6.2,15.9z M6.2,20.8
						h12.4c0.6,0,1-0.5,1-1c0-0.6-0.5-1-1-1H6.2c-0.6,0-1,0.5-1,1C5.2,20.3,5.6,20.8,6.2,20.8z M6.2,10.9h12.4c0.6,0,1-0.5,1-1
						c0-0.6-0.5-1-1-1H6.2c-0.6,0-1,0.5-1,1C5.2,10.4,5.6,10.9,6.2,10.9z M1.4,14.8c0,0.7,0.6,1.2,1.2,1.2c0.7,0,1.2-0.6,1.2-1.2
						c0-0.7-0.6-1.2-1.2-1.2C2,13.6,1.4,14.1,1.4,14.8z M1.4,19.8C1.4,20.5,2,21,2.7,21c0.7,0,1.2-0.6,1.2-1.2
						c0-0.7-0.6-1.2-1.2-1.2C2,18.5,1.4,19.1,1.4,19.8z M1.4,9.9c0,0.7,0.6,1.2,1.2,1.2c0.7,0,1.2-0.6,1.2-1.2
						c0-0.7-0.6-1.2-1.2-1.2C2,8.6,1.4,9.2,1.4,9.9z"/>
				</g>
			</g>
		</g>
	</g>
</g>
</svg>
