<?xml version="1.0" encoding="utf-8"?>
<!-- Generator: Adobe Illustrator 19.0.0, SVG Export Plug-In . SVG Version: 6.00 Build 0)  -->
<svg version="1.1" id="Layer_1" xmlns="http://www.w3.org/2000/svg" xmlns:xlink="http://www.w3.org/1999/xlink" x="0px" y="0px"
	 viewBox="-2 2.4 25 25" style="enable-background:new -2 2.4 25 25;" xml:space="preserve">
<style type="text/css">
	.st0{fill:#297BD8;}
</style>
<desc>Created with Sketch.</desc>
<g id="test">
	<g id="Desktop-Copy-2" transform="translate(-320.000000, -246.000000)">
		<g id="Home" transform="translate(320.000000, 246.000000)">
			<g id="Group">
				<path id="Shape" class="st0" d="M21.8,13.4c-0.7-0.7-1.4-1.3-2.1-2c-0.1-0.1-0.2-0.2-0.3-0.3c0.2,0.4,0.4,0.8,0.5,1.2
					c0-0.3-0.1-0.6-0.2-0.8c-0.1-0.1-0.2-0.2-0.3-0.4c0,0,0,0,0,0c0,0,0,0,0,0c-0.1,0-0.1-0.1-0.2-0.1c-0.2-0.2-0.4-0.4-0.6-0.6
					c-0.7-0.6-1.3-1.3-2-1.9C15.8,7.8,15,7,14.2,6.2c-0.7-0.7-1.4-1.4-2.1-2c-0.3-0.3-0.7-0.7-1-1c0,0,0,0,0,0
					c-0.3-0.3-0.8-0.3-1.1,0C9.6,3.5,9.3,3.7,9.1,4C8.4,4.6,7.7,5.3,7,5.9C6.2,6.7,5.4,7.5,4.6,8.3c-0.7,0.7-1.4,1.3-2.1,2
					c-0.3,0.3-0.7,0.6-1,0.9c0,0,0,0,0,0c0,0-0.2,0.2-0.2,0.2c-0.2,0.3-0.3,0.6-0.3,1c0.2-0.4,0.4-0.8,0.5-1.2
					c-0.7,0.7-1.4,1.3-2.1,2c-0.1,0.1-0.2,0.2-0.3,0.3c-0.2,0.2-0.4,0.4-0.5,0.8c-0.1,0.3,0,0.8,0.1,1.1c0.1,0.3,0.4,0.6,0.6,0.6
					c0.3,0.1,0.6,0.1,0.8-0.1c0.7-0.7,1.4-1.3,2.2-2c0.1-0.1,0.1-0.1,0.2-0.2c0,0,0,0,0,0c0,0,0,0,0,0c0.2-0.1,0.3-0.3,0.4-0.5
					c0.1-0.2,0.1-0.4,0.1-0.7c-0.2,0.4-0.4,0.8-0.5,1.2c0.3-0.3,0.6-0.5,0.8-0.8c0.7-0.6,1.3-1.3,2-1.9c0.8-0.8,1.6-1.5,2.4-2.3
					c0.7-0.7,1.4-1.3,2.1-2c0.3-0.3,0.7-0.6,1-1c0,0,0,0,0,0c-0.4,0-0.7,0-1.1,0c0.3,0.3,0.6,0.5,0.8,0.8c0.7,0.6,1.3,1.3,2,1.9
					c0.8,0.8,1.6,1.5,2.4,2.3c0.7,0.7,1.4,1.3,2.1,2c0.3,0.3,0.7,0.7,1,1c0,0,0,0,0,0c-0.2-0.4-0.4-0.8-0.5-1.2c0,0.4,0.1,0.7,0.3,1
					c0.1,0.2,0.1,0.1,0.2,0.2c0,0,0,0,0,0c0.1,0,0.1,0.1,0.2,0.1c0.2,0.2,0.4,0.4,0.6,0.5c0.4,0.4,0.9,0.8,1.3,1.2
					c0.1,0.1,0.2,0.2,0.3,0.3C21,16,21.3,16,21.6,16c0.3-0.1,0.5-0.3,0.6-0.6c0.1-0.3,0.2-0.7,0.1-1.1c0-0.1-0.1-0.2-0.1-0.3
					C22.1,13.7,22,13.6,21.8,13.4z"/>
				<path id="Shape_1_" class="st0" d="M18.9,12.4V26c0,0.4-0.2,0.8-0.6,0.8h-5.2v-9c0-0.4-0.3-0.7-0.6-0.7H8.4
					c-0.3,0-0.6,0.3-0.6,0.7v9H2.6C2.3,26.8,2,26.5,2,26V12.4l8.4-8L18.9,12.4z"/>
			</g>
		</g>
	</g>
</g>
</svg>
