<?xml version="1.0" encoding="utf-8"?>
<!-- Generator: Adobe Illustrator 19.0.0, SVG Export Plug-In . SVG Version: 6.00 Build 0)  -->
<svg version="1.1" id="Layer_1" xmlns="http://www.w3.org/2000/svg" xmlns:xlink="http://www.w3.org/1999/xlink" x="0px" y="0px"
	 viewBox="0 0 32 32" style="enable-background:new 0 0 32 32;" xml:space="preserve">
<style type="text/css">
	.st0{fill:#F48081;}
</style>
<g id="XMLID_3_">
	<path id="XMLID_1_" class="st0" d="M6.7,28.6l-3-2.9C3,25,3,23.7,3.7,23l6.6-6.7L3.6,9.7c-0.8-0.8-0.8-2,0-2.7l2.9-3
		c0.8-0.8,2-0.8,2.8,0l6.7,6.6l6.6-6.7c0.7-0.8,2-0.8,2.7,0l3,2.9c0.8,0.8,0.8,2,0,2.8l-6.6,6.7l6.7,6.6c0.8,0.7,0.8,2,0,2.8l-2.9,3
		c-0.7,0.8-2,0.7-2.7,0L16,21.9l-6.6,6.7C8.7,29.4,7.4,29.4,6.7,28.6z"/>
</g>
</svg>
