<?xml version="1.0" encoding="utf-8"?>
<!-- Generator: Adobe Illustrator 19.0.0, SVG Export Plug-In . SVG Version: 6.00 Build 0)  -->
<svg version="1.1" id="Layer_1" xmlns="http://www.w3.org/2000/svg" xmlns:xlink="http://www.w3.org/1999/xlink" x="0px" y="0px"
	 viewBox="-4 5.4 20 20" style="enable-background:new -4 5.4 20 20;" xml:space="preserve">
<style type="text/css">
	.st0{fill:#48D079;}
</style>
<desc>Created with Sketch.</desc>
<g id="test">
	<g id="Desktop-Copy-2" transform="translate(-787.000000, -608.000000)">
		<g id="Transacciones" transform="translate(787.000000, 343.000000)">
			<g id="VerdeTransaccionentrada" transform="translate(0.000000, 255.000000)">
				<path id="Shape" class="st0" d="M-3.5,25.3c0,5.3,4.3,9.5,9.5,9.5c5.3,0,9.5-4.3,9.5-9.5c0-5.3-4.3-9.5-9.5-9.5
					C0.8,15.8-3.5,20.1-3.5,25.3z M12.3,26C12.2,26,12.2,26,12.3,26c0,0.1-0.1,0.1-0.1,0.1c0,0,0,0,0,0l-4.8,4.8
					c-0.4,0.4-1.1,0.4-1.5,0c-0.4-0.4-0.4-1.1,0-1.5l2.9-2.9H0.7c-0.6,0-1.1-0.5-1.1-1.1c0-0.6,0.5-1.1,1.1-1.1h8.1l-2.9-2.9
					c-0.4-0.4-0.4-1.1,0-1.5c0.4-0.4,1.1-0.4,1.5,0l4.8,4.8c0,0,0,0,0.1,0.1c0,0,0,0,0,0c0,0,0,0,0,0c0.1,0.2,0.2,0.4,0.2,0.6
					C12.5,25.6,12.4,25.8,12.3,26C12.3,26,12.3,26,12.3,26z"/>
			</g>
		</g>
	</g>
</g>
</svg>
