<?xml version="1.0" encoding="utf-8"?>
<!-- Generator: Adobe Illustrator 19.0.0, SVG Export Plug-In . SVG Version: 6.00 Build 0)  -->
<svg version="1.1" id="Layer_1" xmlns="http://www.w3.org/2000/svg" xmlns:xlink="http://www.w3.org/1999/xlink" x="0px" y="0px"
	 viewBox="0 0 64 64" style="enable-background:new 0 0 64 64;" xml:space="preserve">
<style type="text/css">
	.st0{fill:#60C8D4;}
	.st1{fill:#FFFFFF;}
</style>
<circle id="XMLID_2_" class="st0" cx="32" cy="31.8" r="31.2"/>
<path id="XMLID_1_" class="st1" d="M14.4,49.4l5.4,3.6c0.1,0.1,0.3,0.1,0.4,0.1c0.1,0,0.1,0,0.2,0c0.2,0,0.4-0.2,0.5-0.3L39,25.6
	c4.8,3.3,9.3,6.9,13.5,11c0.1,0.1,0.1,0.1,0.2,0.1l1.8,0.2c0,0,0,0,0,0c0.1,0,0.3-0.1,0.3-0.2c0.1-0.1,0.1-0.3,0-0.4
	c-3.5-6.1-7.6-11.4-12.5-15.8l2.1-3.1c0.2-0.4,0.1-0.9-0.2-1.1l-5.4-3.6c-0.2-0.1-0.4-0.2-0.6-0.1c-0.2,0-0.4,0.2-0.5,0.3l-1.7,2.5
	c-3.9-2.7-8.3-5-13.1-6.9c-0.2-0.1-0.4,0-0.5,0.1l-3.9,5.8c-0.1,0.1-0.1,0.2,0,0.4c0,0.1,0.1,0.2,0.2,0.3c4.4,1.6,8.9,3.7,13.3,6.2
	l-18,27C13.9,48.6,14,49.1,14.4,49.4z"/>
</svg>
