<?xml version="1.0" encoding="utf-8"?>
<!-- Generator: Adobe Illustrator 19.0.0, SVG Export Plug-In . SVG Version: 6.00 Build 0)  -->
<svg version="1.1" id="Layer_1" xmlns="http://www.w3.org/2000/svg" xmlns:xlink="http://www.w3.org/1999/xlink" x="0px" y="0px"
	 viewBox="-5 7 20 20" style="enable-background:new -5 7 20 20;" xml:space="preserve">
<style type="text/css">
	.st0{fill:#F88181;}
</style>
<desc>Created with Sketch.</desc>
<g id="test">
	<g id="Desktop-Copy-2" transform="translate(-787.000000, -478.000000)">
		<g id="Transacciones" transform="translate(787.000000, 343.000000)">
			<g id="RojoTransaccionentrada" transform="translate(0.000000, 125.000000)">
				<path id="Shape" class="st0" d="M14.8,27c0,5.4-4.4,9.8-9.8,9.8c-5.4,0-9.8-4.4-9.8-9.8c0-5.4,4.4-9.8,9.8-9.8
					C10.4,17.2,14.8,21.6,14.8,27z M-1.4,27.7C-1.4,27.7-1.4,27.7-1.4,27.7c0,0.1,0.1,0.1,0.1,0.1c0,0,0,0,0,0l4.9,4.9
					c0.4,0.4,1.1,0.4,1.6,0c0.4-0.4,0.4-1.1,0-1.6l-3-3h8.3c0.6,0,1.1-0.5,1.1-1.1c0-0.6-0.5-1.1-1.1-1.1H2.2l3-3
					c0.4-0.4,0.4-1.1,0-1.6c-0.4-0.4-1.1-0.4-1.6,0l-4.9,4.9c0,0,0,0-0.1,0.1c0,0,0,0,0,0c0,0,0,0,0,0c-0.1,0.2-0.2,0.4-0.2,0.7
					C-1.6,27.2-1.5,27.5-1.4,27.7C-1.4,27.7-1.4,27.7-1.4,27.7z"/>
			</g>
		</g>
	</g>
</g>
</svg>
